# xmcd
#
# Track frame offsets: 
#        150
#        25575
#        61362
#        90787
#        117962
#        153087
#
# Disc length: 2457 seconds
#
# Revision: 1
# Processed by: cddbd v1.5.1PL0 Copyright (c) Steve Scherf et al.
# Submitted via: ExactAudioCopy v0.90b4
#
DISCID=35099706
DTITLE=ї™—еЊы - ґю»™”≥‘¬
DYEAR=1997
DGENRE=Country
TTITLE0=ґюЇъ—Ё„а:г…їЁЈ“£ђЇѕ≥™:єг÷Ёј÷Ќ≈Їѕ≥™Ќ≈£ђ÷Єї”:цƒ«е»™ - ґюЇъ”лЇѕ≥™
TTITLE1=÷–єъ∞Ѓј÷љїѕмј÷Ќ≈£ђЄƒ±а:ќв„ж«њ - ѕ“ј÷Їѕ„а
TTITLE2=µз„”Їѕ≥…±а≥ћ:јћ„–£ђџч,ѕф:ї∆љр≥« - µз„”Їѕ≥…∆ч
TTITLE3=÷–єъєг≤•√с„еј÷Ќ≈£ђґюЇъ:’≈Јљ√щ£ђ÷Єї”:’≈іу…≠ - ÷–єъ√с„еј÷Їѕ„а
TTITLE4=Є÷«ў:’‘ЎЈЎЈ£ђ÷Єї”:Їъ±ю–с£ђ∞й„а:єг÷Ёљїѕмј÷Ќ≈ - Є÷«ў”лѕ“ј÷ґ”
TTITLE5=ї™—еЊы(∞Ґ±ю) - јъ Ј’дєу¬Љ“ф(¬Љ“ф ±Љд:1950)
EXTD=ґю»™”≥‘¬\n≥ц∆Ј»Ћ:¬уќ∞ЅЉ\nЉа÷∆:≥¬зу\n¬Љ“ф:≥¬зу,µЋё»Љб,…–ґЂ
EXTT0=ґюЇъ”лЇѕ≥™\nґюЇъ—Ё„а:г…їЁЈ“\nЇѕ≥™:єг÷Ёј÷Ќ≈Їѕ≥™Ќ≈\n÷Єї”:цƒ«е»™\n±
EXTT0=а«ъ:цƒ«е»™\n¬Љ“ф:≥¬зу,µЋё»Љб,…–ґЂ\n¬Љ“фµЎµг:єг÷Ёї∆ї®ЄЏЊз‘Ї\n¬Љ“ф
EXTT0= ±Љд:1988/6\n¬Љ“ф∆ч≤ƒ:\n  Schoeps MK2S Miephone\n    Studer 169 
EXTT0=Mixer\n    Sony DCM F-1 Recorder\n    JBL 4412 Moniter\n    
EXTT1=÷–єъ∞Ѓј÷љїѕмј÷Ќ≈\nЄƒ±а:ќв„ж«њ\n¬Љ“ф:…џЊь,≥¬зу\n¬Љ“фµЎµг:±±Њ©Њьј÷
EXTT1=Ќ≈¬Љ“ф≈п\n¬Љ“ф ±Љд:1997/8/28\n¬Љ“ф∆ч≤ƒ:\n  B&K4040 golo Micphone
EXTT1=\n    Studer 269 Mixer\n    Dcs 900D A/D Converter\n    Lexicom 
EXTT1=480 L Digital Effects system\n    Sony 2800 DAT Recorder\n    AT
EXTT1=C SCM 20A PRO Moniter
EXTT2=µз„”Їѕ≥…±а≥ћ:јћ„–\nџч,ѕф:ї∆љр≥«\n¬Љ“ф:≥¬зу\n¬Љ“фµЎµг:єг÷Ё–¬ ±іъ¬
EXTT2=Љ“ф≈п\n¬Љ“ф ±Љд:1997/12\n¬Љ“ф∆ч≤ƒ:\n  Audio-Technich 4050\n    C
EXTT2=M5 Micphone\n    Avalon-Design Vt 737 TUBE music Recording syste
EXTT2=ms.\n    Digidesign PRO-Tools systems\n    Meyer HD-1 Moniter
EXTT3=÷–єъєг≤•√с„еј÷Ќ≈\n÷Єї”:’≈іу…≠\nґюЇъ:’≈Јљ√щ\n¬Љ“ф:…џЊь,≥¬зу\n¬Љ“ф
EXTT3=µЎµг:±±Њ©Њьј÷Ќ≈¬Љ“ф≈п\n¬Љ“ф ±Љд:1997/8/29\n¬Љ“ф∆ч≤ƒ:\n  B&K 4040
EXTT3=Golo Micphone\n    Studer 269 Mixer\n    Dcs900D A/D Converter\n
EXTT3=Lexicom 480 L Digital Effects system\n    Sony 2800 DAT Reco
EXTT3=rder\n    ATC SCM20A PRO Moniter
EXTT4=Є÷«ў”лѕ“ј÷ґ”\nЄ÷«ў:’‘ЎЈЎЈ\n÷Єї”:Їъ±ю–с\n∞й„а:єг÷Ёљїѕмј÷Ќ≈\n¬Љ“ф:
EXTT4=≥¬зу\n¬Љ“фµЎµг:єг÷Ё÷–≥™¬Љ“ф≈п\n¬Љ“ф ±Љд:1995/6/19\n¬Љ“ф∆ч≤ƒ:\n  
EXTT4=Schoeps Mk2s Micphone\n    Sony PCM 2000 Recorder\n    Lexicon D
EXTT4=igital Effects System\n    TANNOY DMT215 DMT8 Moniter
EXTT5=јъ Ј’дєу¬Љ“ф\nґюЇъ—Ё„а:ї™—еЊы(∞Ґ±ю]\n¬Љ“ф ±Љд:1950\n¬Љ“ф∆ч≤ƒ:Є÷Ћ
EXTT5=њ¬Љ“фїъ
PLAYORDER=
